<?xml version="1.0" standalone="no"?>
<!DOCTYPE svg PUBLIC "-//W3C//DTD SVG 20010904//EN"
 "http://www.w3.org/TR/2001/REC-SVG-20010904/DTD/svg10.dtd">
<svg version="1.0" xmlns="http://www.w3.org/2000/svg"
 width="186.000000pt" height="213.000000pt" viewBox="0 0 186.000000 213.000000"
 preserveAspectRatio="xMidYMid meet">
<metadata>
Created by potrace 1.13, written by Peter Selinger 2001-2015
</metadata>
<g transform="translate(0.000000,213.000000) scale(0.100000,-0.100000)"
fill="#000000" stroke="none">
<path d="M485 1801 l-400 -239 0 -477 0 -478 395 -224 c217 -123 405 -229 416
-235 19 -9 75 21 428 233 l406 244 0 476 0 476 -405 227 c-222 125 -412 229
-422 231 -10 2 -189 -98 -418 -234z m562 -143 l93 -53 0 -111 0 -112 88 -50
c48 -28 86 -55 85 -61 -2 -6 4 -8 12 -4 14 5 15 -10 13 -106 l-3 -112 -235
-135 c-129 -75 -269 -153 -310 -173 -41 -21 -91 -48 -110 -60 -19 -11 -38 -21
-42 -21 -4 0 -9 46 -11 103 l-3 102 -2 -107 c-1 -60 -5 -108 -9 -108 -3 0 -48
24 -100 53 l-93 52 0 330 1 330 262 147 c144 82 264 148 266 148 3 0 46 -24
98 -52z"/>
</g>
</svg>
